<svg xmlns="http://www.w3.org/2000/svg" xmlns:xlink="http://www.w3.org/1999/xlink" viewBox="0 0 1280 1024"><defs><style>.cls-1{fill:none;}.cls-2{fill:#1d1d1b;}.cls-3{fill:url(#_60_10_ppp);}</style><pattern id="_60_10_ppp" data-name="60 % 10 ppp" width="28.8" height="28.8" patternUnits="userSpaceOnUse" viewBox="0 0 28.8 28.8"><rect class="cls-1" width="28.8" height="28.8"/><path class="cls-2" d="M28.8,33.12a4.32,4.32,0,1,0-4.32-4.32A4.31,4.31,0,0,0,28.8,33.12Z"/><path class="cls-2" d="M14.4,33.12a4.32,4.32,0,1,0-4.32-4.32A4.31,4.31,0,0,0,14.4,33.12Z"/><path class="cls-2" d="M28.8,18.72a4.32,4.32,0,1,0-4.32-4.32A4.31,4.31,0,0,0,28.8,18.72Z"/><path class="cls-2" d="M14.4,18.72a4.32,4.32,0,1,0-4.32-4.32A4.31,4.31,0,0,0,14.4,18.72Z"/><path class="cls-2" d="M7.2,25.92A4.32,4.32,0,1,0,2.88,21.6,4.32,4.32,0,0,0,7.2,25.92Z"/><path class="cls-2" d="M21.6,25.92a4.32,4.32,0,1,0-4.32-4.32A4.32,4.32,0,0,0,21.6,25.92Z"/><path class="cls-2" d="M7.2,11.52A4.32,4.32,0,1,0,2.88,7.2,4.33,4.33,0,0,0,7.2,11.52Z"/><path class="cls-2" d="M21.6,11.52A4.32,4.32,0,1,0,17.28,7.2,4.33,4.33,0,0,0,21.6,11.52Z"/><path class="cls-2" d="M0,33.12A4.32,4.32,0,0,0,4.32,28.8,4.32,4.32,0,0,0,0,24.48,4.31,4.31,0,0,0-4.32,28.8,4.31,4.31,0,0,0,0,33.12Z"/><path class="cls-2" d="M0,18.72A4.32,4.32,0,0,0,4.32,14.4,4.32,4.32,0,0,0,0,10.08,4.31,4.31,0,0,0-4.32,14.4,4.31,4.31,0,0,0,0,18.72Z"/><path class="cls-2" d="M28.8,4.32A4.31,4.31,0,0,0,33.12,0,4.31,4.31,0,0,0,28.8-4.32,4.31,4.31,0,0,0,24.48,0,4.31,4.31,0,0,0,28.8,4.32Z"/><path class="cls-2" d="M14.4,4.32A4.31,4.31,0,0,0,18.72,0,4.31,4.31,0,0,0,14.4-4.32,4.31,4.31,0,0,0,10.08,0,4.31,4.31,0,0,0,14.4,4.32Z"/><path class="cls-2" d="M0,4.32A4.32,4.32,0,0,0,4.32,0,4.32,4.32,0,0,0,0-4.32,4.31,4.31,0,0,0-4.32,0,4.31,4.31,0,0,0,0,4.32Z"/></pattern></defs><title>bg-black-motif</title><g id="Calque_1" data-name="Calque 1"><rect width="1280" height="1024"/></g><g id="Calque_1_-_copie" data-name="Calque 1 - copie"><rect class="cls-3" width="1280" height="1024"/></g></svg>