<svg xmlns="http://www.w3.org/2000/svg" viewBox="0 0 1080 1080"><defs><style>.cls-1{fill:#d6f42a;}.cls-2{fill:#fff;}.cls-3{fill:#f2f2f2;}</style></defs><title>space-rafana-logo-1080</title><g id="LOGO-2" data-name="LOGO"><path class="cls-1" d="M519.81,624l-.76,0h0a15.59,15.59,0,0,1-14.75-15.71v-56a18.53,18.53,0,0,1,18.53-18.53h225a67.5,67.5,0,0,1,67.55,67.38h.06v7.33c0,.2,0,.4,0,.6v.53a9,9,0,0,1-.44,2.67A15.52,15.52,0,0,1,800,624a15.54,15.54,0,0,1-14.88-11.1,8.26,8.26,0,0,1-.69-3.25c0-.28,0-.73,0-1.41,0-1.29,0-3.44,0-6.92a36.56,36.56,0,0,0-36.56-36.56h-205a7.59,7.59,0,0,0-7.59,7.59v35.78a16,16,0,0,1-4.85,11.64A15.38,15.38,0,0,1,519.81,624Z"/><path class="cls-2" d="M417.86,624h-86.1a15.5,15.5,0,1,1,0-31h86.1a36.56,36.56,0,0,0,0-73.12H262.19a67.55,67.55,0,0,1,0-135.09H747.82a67.55,67.55,0,1,1,0,135.09H518.68a15.49,15.49,0,1,1,0-31H747.82a36.56,36.56,0,0,0,0-73.12H262.19a36.56,36.56,0,0,0,0,73.12H417.86a67.55,67.55,0,1,1,0,135.09Z"/><path class="cls-3" d="M306.25,1046.2h0a9.21,9.21,0,0,1,5.8-11.62c125-42.14,258.86-103.16,387.7-176.8s249.26-157.92,349-244.22a9.21,9.21,0,0,1,13,.9h0a9.21,9.21,0,0,1-.91,13c-100.64,87.08-222.12,172.1-351.92,246.28S444.07,1009.53,318,1052A9.21,9.21,0,0,1,306.25,1046.2ZM183.39,926.36a308.73,308.73,0,0,1-41.11-2.57c-22.88-3.09-42.56-9-58.52-17.52-16.94-9.07-29.83-21.19-38.3-36s-12.36-32-11.59-51.21c.65-16.21,4.65-33.92,11.92-52.74a9.21,9.21,0,0,0,.08-6.36A526.29,526.29,0,0,1,16.29,585.31c0-6.74.13-13.54.38-20.29a9.21,9.21,0,0,1,9.72-8.87h0a9.2,9.2,0,0,1,8.7,9.53c-.25,6.53-.38,13.1-.38,19.63A507.69,507.69,0,0,0,65.56,760.24h0A9.2,9.2,0,0,1,65.4,767h0c-16.23,38.64-17.55,70.32-3.94,94.14s41.65,38.79,83.28,44.41c55,7.41,129.68-2.24,215.91-27.94,89.15-26.56,186-69,280.2-122.85s180-115.8,248.18-179.16c65.92-61.3,112.13-120.74,133.62-171.92,16.22-38.64,17.55-70.31,3.93-94.13s-41.65-38.8-83.27-44.41h0a9.23,9.23,0,0,1-5.89-3.27h0a508.15,508.15,0,0,0-151.88-125,9.2,9.2,0,0,1-3.78-12.33h0a9.22,9.22,0,0,1,12.59-3.86,530.07,530.07,0,0,1,152.8,124.11,9.21,9.21,0,0,0,5.53,3.15c20,3.29,37.28,8.82,51.6,16.49,17,9.07,29.84,21.19,38.31,36s12.36,32,11.59,51.21c-.72,18.05-5.61,38-14.53,59.21-22.5,53.57-70.24,115.22-138.07,178.28C832.41,653.38,745.42,716.2,650,770.74S456.39,868.3,365.92,895.25C296.87,915.82,234.71,926.36,183.39,926.36Z"/><path class="cls-3" d="M504.91,1005.3A489,489,0,0,1,314.6,65.9a489,489,0,0,1,380.62,901A485.8,485.8,0,0,1,504.91,1005.3Zm0-959.39C245.49,45.91,34.44,257,34.44,516.38S245.49,986.86,504.91,986.86,975.39,775.81,975.39,516.38,764.33,45.91,504.91,45.91Z"/></g></svg>